# xmcd
# 
# Track frame offsets:
#     150
#     49315
#     85653
#     141871
#     157610
#     181016
#     195295
#     231595
#     242188
#     253045
# 
# Disc length: 3584
# 
# Revision: 3
# Processed by: cddbd v1.5.2PL0 Copyright (c) Steve Scherf et al.
# Submitted via: fre:ac v1.0.27
# 
DISCID=7a0dfe0a
DTITLE=Jimi Hendrix - the early years
DYEAR=1999
DGENRE=Blues
TTITLE0=Red House
TTITLE1=Woke Up This Morning and Found Myself Dead
TTITLE2=Peoples Peoples a.k.a. Bleeding Heart
TTITLE3=Morrison's Lament
TTITLE4=Tomorrow Never Knows
TTITLE5=Uranus Rock
TTITLE6=Outside Woman Blues
TTITLE7=Sunshine of Your Love
TTITLE8=Goodbye, Bessie Mae
TTITLE9=Soul Food
EXTD=YEAR: 1999  ID3G:   0
EXTT0=
EXTT1=
EXTT2=
EXTT3=
EXTT4=
EXTT5=
EXTT6=
EXTT7=
EXTT8=
EXTT9=
PLAYORDER=
